<mxfile host="app.diagrams.net" modified="2024-03-16T20:41:21.645Z" agent="Mozilla/5.0 (Windows NT 10.0; Win64; x64) AppleWebKit/537.36 (KHTML, like Gecko) Chrome/122.0.0.0 Safari/537.36" version="24.0.7" etag="GOzUzGqAOiUZ879NsWpt" type="github">
  <diagram name="Страница-1" id="pW7l8JjEVTz-Fiij41Cb">
    <mxGraphModel>
      <root>
        <mxCell id="0" />
        <mxCell id="1" parent="0" />
      </root>
    </mxGraphModel>
  </diagram>
</mxfile>
